HIERARCHY
ROOT Hips
{
	OFFSET 0.000000 0.000000 0.000000
	CHANNELS 6 Xposition Yposition Zposition Zrotation Xrotation Yrotation
	JOINT RightUpLeg
	{
		OFFSET -9.711200 0.000000 0.000000
		CHANNELS 3 Zrotation Xrotation Yrotation
		JOINT RightLeg
		{
			OFFSET 0.000000 -42.071800 0.000000
			CHANNELS 3 Zrotation Xrotation Yrotation
			JOINT RightFoot
			{
				OFFSET 0.000000 -40.121000 0.000000
				CHANNELS 3 Zrotation Xrotation Yrotation
				JOINT RightToe
				{
					OFFSET 0.000000 -9.631400 3.100600
					CHANNELS 3 Zrotation Xrotation Yrotation
					JOINT RightToeEnd
					{
						OFFSET 0.000000 -4.048200 4.118000
						CHANNELS 3 Zrotation Xrotation Yrotation
						End Site
						{
						    OFFSET 0.000000 -3.505200 3.565600
						}
					}
				}
			}
		}
	}
	JOINT LeftUpLeg
	{
		OFFSET 9.711200 0.000000 0.000000
		CHANNELS 3 Zrotation Xrotation Yrotation
		JOINT LeftLeg
		{
			OFFSET 0.000000 -42.071800 0.000000
			CHANNELS 3 Zrotation Xrotation Yrotation
			JOINT LeftFoot
			{
				OFFSET 0.000000 -40.121000 0.000000
				CHANNELS 3 Zrotation Xrotation Yrotation
				JOINT LeftToe
				{
					OFFSET 0.000000 -9.631400 3.100600
					CHANNELS 3 Zrotation Xrotation Yrotation
					JOINT LeftToeEnd
					{
						OFFSET 0.000000 -4.048200 4.118000
						CHANNELS 3 Zrotation Xrotation Yrotation
						End Site
						{
						    OFFSET 0.000000 -3.505200 3.565600
						}
					}
				}
			}
		}
	}
	JOINT Spine
	{
		OFFSET 0.000000 14.595200 0.000000
		CHANNELS 3 Zrotation Xrotation Yrotation
		JOINT Spine1
		{
			OFFSET 0.000000 9.770300 0.000000
			CHANNELS 3 Zrotation Xrotation Yrotation
			JOINT Spine2
			{
				OFFSET 0.000000 14.330100 0.000000
				CHANNELS 3 Zrotation Xrotation Yrotation
				JOINT LeftShoulder
				{
					OFFSET 2.000000 14.330100 0.000000
					CHANNELS 3 Zrotation Xrotation Yrotation
					JOINT LeftArm
					{
						OFFSET 14.369100 0.000000 0.000000
						CHANNELS 3 Zrotation Xrotation Yrotation
						JOINT LeftForeArm
						{
							OFFSET 0.000000 -27.196400 0.000000
							CHANNELS 3 Zrotation Xrotation Yrotation
							JOINT LeftHand
							{
								OFFSET 0.000000 -24.849000 0.000000
								CHANNELS 3 Zrotation Xrotation Yrotation
								JOINT LeftFinger0
								{
									OFFSET 0.000000 -7.367300 0.000000
									CHANNELS 3 Zrotation Xrotation Yrotation
									End Site
									{
									    OFFSET 0.000000 -5.000000 0.000000
									}
								}
							}
						}
					}
				}
				JOINT RightShoulder
				{
					OFFSET -2.000000 14.330100 0.000000
					CHANNELS 3 Zrotation Xrotation Yrotation
					JOINT RightArm
					{
						OFFSET -14.369100 0.000000 0.000000
						CHANNELS 3 Zrotation Xrotation Yrotation
						JOINT RightForeArm
						{
							OFFSET 0.000000 -27.196400 0.000000
							CHANNELS 3 Zrotation Xrotation Yrotation
							JOINT RightHand
							{
								OFFSET 0.000000 -24.849000 0.000000
								CHANNELS 3 Zrotation Xrotation Yrotation
								JOINT RightFinger0
								{
									OFFSET 0.000000 -7.367300 0.000000
									CHANNELS 3 Zrotation Xrotation Yrotation
									End Site
									{
									    OFFSET 0.000000 -5.000000 0.000000
									}
								}
							}
						}
					}
				}
				JOINT Neck
				{
					OFFSET 0.000000 14.330100 0.000000
					CHANNELS 3 Zrotation Xrotation Yrotation
					JOINT Head
					{
						OFFSET 0.000000 8.944300 0.000000
						CHANNELS 3 Zrotation Xrotation Yrotation
						JOINT HeadTip
						{
							OFFSET 0.000000 10.000000 0.000000
							CHANNELS 3 Zrotation Xrotation Yrotation
							End Site
							{
							    OFFSET 0.000000 5.000000 0.000000
							}
						}
					}
				}
			}
		}
	}
}
MOTION
Frames:	9
Frame Time:	0.033332
-253.146600 88.557800 -26.996800 -1.792906 -0.509131 0.261673 1.998468 -6.586119 -13.991233 -0.000000 11.046650 -0.000000 -6.080095 -45.907417 -26.450340 0.000000 0.848086 -0.000000 -0.000000 -0.000000 0.000000 0.702347 -3.883705 10.046354 -0.000000 7.659805 0.000000 -3.578087 -51.322670 -10.627720 0.000000 1.860302 0.000000 -0.000000 0.000000 -0.000000 3.039582 -0.775304 0.875525 0.000000 3.453551 -0.000000 0.000000 -0.000000 -0.000000 7.010534 0.000000 5.888837 91.497603 -11.477417 47.896393 -0.000000 -9.049861 -0.000000 0.623294 12.476769 -38.484074 0.000000 0.000000 0.000000 -13.310945 0.000000 -7.320435 -98.975939 -10.740581 -12.433822 -0.000014 -5.385846 -0.000001 8.029939 16.411268 16.393549 -0.000000 -0.000000 -0.000000 0.000000 -0.000000 -0.000000 -0.578958 18.521566 0.849634 -0.000000 0.000000 -0.000000 
-253.170200 88.561700 -26.985400 -1.794671 -0.513110 0.250977 2.017492 -6.568763 -14.012608 -0.000000 11.033289 -0.000000 -6.079349 -45.902445 -26.395310 -0.000000 0.925966 0.000000 -0.000000 0.000000 0.000000 0.715854 -3.860307 10.022427 -0.000000 7.635270 0.000000 -3.528930 -51.308536 -10.563261 -0.000000 1.838685 -0.000000 0.000000 0.000000 -0.000000 3.004006 -0.784735 0.928307 -0.000000 3.416920 -0.000000 -0.000000 -0.000000 -0.000000 7.355716 0.000000 5.942884 91.731557 -11.509519 48.257271 0.000000 -9.062335 -0.000000 0.837583 12.481940 -38.489708 0.000000 0.000000 -0.000000 -13.793505 -0.000000 -7.490541 -99.184250 -10.741948 -12.479618 -0.000014 -5.355919 -0.000001 7.785486 16.466957 16.681634 -0.000000 0.000000 -0.000000 -0.000000 -0.000000 -0.000000 -0.547709 18.476137 0.388298 -0.000000 0.000000 -0.000000 
-253.187100 88.563500 -26.988800 -1.783694 -0.499237 0.225229 2.018465 -6.578916 -14.048527 0.000000 11.018280 -0.000000 -6.040630 -45.913973 -26.338129 0.000000 0.911913 -0.000000 0.000000 0.000000 -0.000000 0.714112 -3.870634 10.040867 -0.000000 7.628175 -0.000000 -3.511271 -51.298990 -10.542244 -0.000000 1.854597 -0.000000 -0.000000 0.000000 0.000000 2.955798 -0.797890 0.977842 0.000000 3.387331 -0.000000 -0.000000 -0.000000 -0.000000 7.581091 -0.000000 6.051170 91.903128 -11.632441 48.475158 -0.000000 -8.962527 -0.000000 0.785550 12.485883 -38.395192 -0.000000 -0.000000 -0.000000 -14.112621 0.000000 -7.680748 -99.332270 -10.822863 -12.684313 -0.000014 -5.234286 -0.000001 7.555455 16.294999 16.698886 0.000000 0.000000 -0.000000 -0.000000 -0.000000 -0.000000 -0.544951 18.368935 -0.148080 -0.000000 -0.000000 -0.000000 
-253.207900 88.567600 -26.993100 -1.789403 -0.485556 0.182472 2.042522 -6.581622 -14.034380 -0.000000 10.984788 -0.000000 -6.002465 -45.878415 -26.273202 0.000000 0.925051 -0.000000 0.000000 -0.000000 -0.000000 0.731254 -3.868279 10.066016 0.000000 7.600685 -0.000000 -3.486208 -51.268205 -10.507525 -0.000000 1.829179 -0.000000 -0.000000 0.000000 -0.000000 2.915109 -0.801819 0.999630 0.000000 3.333019 0.000000 0.000000 0.000000 -0.000000 7.692226 0.000000 6.069074 92.000649 -11.633070 48.474155 -0.000000 -8.878798 0.000000 0.865460 12.508303 -38.381066 0.000000 -0.000000 -0.000000 -14.310160 -0.000000 -7.759407 -99.336306 -10.805435 -12.858629 -0.000014 -5.304854 -0.000001 6.986219 16.169861 17.013386 -0.000000 -0.000000 -0.000000 0.000000 0.000000 -0.000000 -0.537327 18.256612 -0.558998 -0.000000 0.000000 -0.000000 
-253.218300 88.571700 -26.999200 -1.798348 -0.466917 0.111499 2.060166 -6.598350 -14.023909 0.000000 10.963322 0.000000 -5.932913 -45.862038 -26.204674 0.000000 0.962393 -0.000000 -0.000000 0.000000 0.000000 0.743109 -3.868936 10.083444 -0.000000 7.574592 -0.000000 -3.405094 -51.253033 -10.398593 0.000000 1.804434 -0.000000 0.000000 0.000000 -0.000000 2.889957 -0.815457 1.003368 -0.000000 3.299801 -0.000000 -0.000000 0.000000 0.000000 7.678368 0.000000 6.165435 92.073731 -11.694068 48.421512 -0.000000 -8.822925 -0.000000 1.177128 12.407072 -38.610337 0.000000 0.000000 -0.000000 -14.377225 -0.000000 -7.782096 -99.360024 -10.808808 -12.626152 -0.000014 -5.256674 -0.000001 6.668839 15.919074 17.289982 -0.000000 0.000000 -0.000000 -0.000000 0.000000 0.000000 -0.552294 18.101574 -0.832714 -0.000000 -0.000000 -0.000000 
-253.232300 88.574800 -27.013900 -1.803262 -0.448143 0.031951 2.080711 -6.620082 -13.984302 -0.000000 10.939476 -0.000000 -5.883687 -45.852363 -26.147308 -0.000000 0.973895 0.000000 -0.000000 0.000000 0.000000 0.761046 -3.878332 10.133057 0.000000 7.553578 -0.000000 -3.385470 -51.254634 -10.386288 -0.000000 1.825616 0.000000 0.000000 0.000000 -0.000000 2.845757 -0.830089 1.030094 -0.000000 3.275352 -0.000000 -0.000000 -0.000000 0.000000 7.641601 -0.000000 6.182845 92.047846 -11.669481 48.382835 -0.000000 -8.892538 0.000000 1.106340 12.421558 -38.560341 -0.000000 0.000000 -0.000000 -14.373726 0.000000 -7.789609 -99.255421 -10.803445 -12.625780 -0.000014 -5.274458 -0.000001 6.402669 15.954377 17.479152 0.000000 0.000000 -0.000000 -0.000000 -0.000000 0.000000 -0.504727 18.003104 -1.025694 0.000000 0.000000 -0.000000 
-253.245300 88.577600 -27.034300 -1.805894 -0.452528 -0.057503 2.112033 -6.598729 -13.872518 -0.000000 10.857977 0.000000 -5.864043 -45.805417 -26.168723 -0.000000 1.000444 0.000000 -0.000000 -0.000000 -0.000000 0.770976 -3.873104 10.163081 0.000000 7.544112 -0.000000 -3.270716 -51.254257 -10.299038 -0.000000 1.865299 -0.000000 -0.000000 -0.000000 -0.000000 2.801585 -0.804253 1.070025 -0.000000 3.218671 -0.000000 -0.000000 -0.000000 -0.000000 7.553686 0.000000 6.205224 92.037538 -11.719754 48.292069 -0.000000 -8.909269 -0.000000 0.896328 12.589655 -38.425192 -0.000000 0.000000 -0.000000 -14.314576 -0.000000 -7.758578 -99.129238 -10.802100 -12.530845 -0.000014 -5.157465 -0.000001 6.313864 15.752161 17.541502 0.000000 -0.000000 -0.000000 -0.000000 -0.000000 -0.000000 -0.473520 17.959538 -1.030895 -0.000000 -0.000000 0.000000 
-253.247900 88.580500 -27.045300 -1.829843 -0.455439 -0.157213 2.136867 -6.601895 -13.878199 -0.000000 10.844820 -0.000000 -5.745852 -45.763721 -26.015816 0.000000 0.950908 -0.000000 0.000000 0.000000 0.000000 0.800389 -3.841821 10.265828 0.000000 7.494696 0.000000 -3.266233 -51.243199 -10.326893 -0.000000 1.850295 0.000000 -0.000000 0.000000 -0.000000 2.796680 -0.817093 1.152273 -0.000000 3.196370 -0.000000 -0.000000 -0.000000 -0.000000 7.435870 -0.000000 6.194942 92.074995 -11.771562 47.969917 -0.000000 -8.811023 -0.000000 0.833810 12.603484 -38.565155 -0.000000 0.000000 -0.000000 -14.237687 0.000000 -7.750430 -98.982527 -10.759998 -12.398520 -0.000014 -5.189858 -0.000001 6.202026 15.770276 17.651514 0.000000 0.000000 -0.000000 -0.000000 -0.000000 -0.000000 -0.430543 17.946122 -1.049469 -0.000000 -0.000000 0.000000 
-253.253800 88.581000 -27.067000 -1.835328 -0.429016 -0.217411 2.157018 -6.614195 -13.858207 -0.000000 10.777802 0.000000 -5.701385 -45.760559 -25.982704 -0.000000 1.060747 -0.000000 -0.000000 -0.000000 -0.000000 0.809027 -3.885765 10.229046 -0.000000 7.516886 -0.000000 -3.185773 -51.240887 -10.169282 -0.000000 1.839862 -0.000000 0.000000 0.000000 -0.000000 2.770421 -0.844203 1.164370 -0.000000 3.169366 0.000000 -0.000000 0.000000 -0.000000 7.328581 0.000000 6.222485 92.068385 -11.793836 48.021539 -0.000000 -8.909090 -0.000000 0.796619 12.700279 -38.640025 0.000000 -0.000000 -0.000000 -14.156986 -0.000000 -7.710509 -98.816857 -10.715006 -12.374955 -0.000014 -5.130595 -0.000001 6.328020 15.613142 17.723045 -0.000000 -0.000000 -0.000000 -0.000000 0.000000 -0.000000 -0.453284 17.942467 -1.035784 -0.000000 0.000000 0.000000 
